<svg xmlns="http://www.w3.org/2000/svg" viewBox="0 0 750 500"><g id="freepik--background-complete--inject-69"><path d="M99.11,321.06,86,321.33l-6.66.12c-2.22,0-4.46,0-6.69.05h-.44v-.44l-.05-11.19v-.51h.5l13.24.06c4.41,0,8.83.11,13.24.16h.28v.27c0,1.89-.08,3.78-.13,5.65Zm0,0L99,315.4c0-1.86-.11-3.7-.13-5.53l.27.27c-4.41.05-8.83.16-13.24.16l-13.24.06.5-.49-.06,11.19-.44-.45c2.18,0,4.36,0,6.54.05l6.58.12Z" style="fill:#ebebeb"></path><path d="M84.34,335.17l-13.13.27-6.66.12c-2.22,0-4.46,0-6.69.05h-.45v-.44l0-11.19v-.51h.5l13.24.06c4.41,0,8.82.11,13.24.16h.27V324c0,1.89-.08,3.78-.13,5.65Zm0,0-.14-5.66c0-1.86-.12-3.7-.13-5.53l.27.27c-4.42.05-8.83.16-13.24.16l-13.24.06.5-.49-.06,11.19-.44-.45c2.18,0,4.36,0,6.54,0l6.58.12Z" style="fill:#ebebeb"></path><path d="M466.26,199.65l-13.12.28-6.66.11c-2.23.05-4.47,0-6.7.06h-.44v-.45l-.06-11.19V188h.5L453,188c4.42,0,8.83.11,13.24.16h.28v.27c0,1.9-.09,3.79-.14,5.66Zm0,0-.14-5.65c0-1.86-.11-3.71-.13-5.54l.27.27c-4.41.06-8.82.16-13.24.17l-13.24.06.5-.5,0,11.19-.45-.44c2.18,0,4.36,0,6.55,0l6.58.11Z" style="fill:#ebebeb"></path><path d="M451.49,213.76l-13.12.28-6.67.11c-2.22,0-4.46,0-6.69.06h-.44v-.45l-.05-11.19v-.5h.5l13.24.07c4.41,0,8.83.11,13.24.16h.28v.27c0,1.9-.08,3.79-.13,5.66Zm0,0-.14-5.65c-.05-1.87-.11-3.71-.13-5.54l.27.27c-4.41.06-8.83.16-13.24.17l-13.24.06.5-.5-.05,11.19-.45-.44c2.18,0,4.36,0,6.55.05l6.57.11Z" style="fill:#ebebeb"></path><path d="M436.78,199.65l-13.13.28L417,200c-2.22.05-4.46,0-6.69.06h-.45v-.45l-.05-11.19V188h.51l13.24.07c4.41,0,8.82.11,13.24.16h.27v.27c0,1.9-.09,3.79-.13,5.66Zm0,0-.14-5.65c-.05-1.86-.12-3.71-.14-5.54l.28.27c-4.42.06-8.83.16-13.24.17L410.3,189l.5-.5-.06,11.19-.44-.44c2.18,0,4.35,0,6.54,0l6.58.11Z" style="fill:#ebebeb"></path><path d="M692.14,335.17l-13.12.27-6.66.12c-2.23,0-4.47,0-6.7.05h-.44v-.44L665.16,324v-.51h.5l13.24.06c4.42,0,8.83.11,13.24.16h.28V324c0,1.89-.09,3.78-.14,5.65Zm0,0-.14-5.66c0-1.86-.11-3.7-.13-5.53l.27.27c-4.41.05-8.82.16-13.24.16l-13.24.06.5-.49,0,11.19-.45-.45c2.18,0,4.36,0,6.55,0l6.58.12Z" style="fill:#ebebeb"></path><path d="M677.37,61.49l-13.12.27-6.67.12c-2.22,0-4.46,0-6.69,0h-.44v-.45l-.05-11.19v-.51h.5l13.24.06c4.41,0,8.83.11,13.24.16h.28v.27c0,1.9-.08,3.78-.13,5.65Zm0,0-.14-5.66c-.05-1.86-.11-3.7-.13-5.53l.27.27c-4.41,0-8.83.16-13.24.16l-13.24.07.5-.5,0,11.19-.45-.45c2.18,0,4.36,0,6.55.06l6.58.11Z" style="fill:#ebebeb"></path><path d="M692.14,75.6,679,75.87l-6.66.12c-2.23,0-4.47,0-6.7.05h-.44V75.6l-.06-11.19V63.9h.5L678.9,64c4.42,0,8.83.11,13.24.16h.28v.27c0,1.9-.09,3.78-.14,5.65Zm0,0L692,69.94c0-1.86-.11-3.7-.13-5.53l.27.27c-4.41,0-8.82.16-13.24.16l-13.24.07.5-.5,0,11.19-.45-.45c2.18,0,4.36,0,6.55.06l6.58.11Z" style="fill:#ebebeb"></path><path d="M99.11,61.49,86,61.76l-6.66.12c-2.22,0-4.46,0-6.69,0h-.44v-.45L72.13,50.3v-.51h.5l13.24.06c4.41,0,8.83.11,13.24.16h.28v.27c0,1.9-.08,3.78-.13,5.65Zm0,0L99,55.83c0-1.86-.11-3.7-.13-5.53l.27.27c-4.41,0-8.83.16-13.24.16l-13.24.07.5-.5-.06,11.19L72.63,61c2.18,0,4.36,0,6.54.06l6.58.11Z" style="fill:#ebebeb"></path><polygon points="365.15 360.98 540.89 360.98 544.54 288.87 361.5 288.87 365.15 360.98" style="fill:#ebebeb"></polygon><path d="M532.56,321.88H459.09l-1.38-25h76.46ZM459.93,321h71.8l1.49-23.26H458.65Z" style="fill:#dbdbdb"></path><path d="M531.2,350.68H462l-1.13-22.6h71.78Zm-68.39-.89h67.56l1.3-20.82H461.78Z" style="fill:#dbdbdb"></path><path d="M502.9,312.08H490.55l-.77-6h13.9Zm-11.57-.89h10.79l.55-4.26H490.78Z" style="fill:#dbdbdb"></path><path d="M502.9,342.4H490.55l-.77-6h13.9Zm-11.57-.89h10.79l.55-4.26H490.78Z" style="fill:#dbdbdb"></path><path d="M446.14,321.88H372.67l-1.38-25h76.46ZM373.51,321h71.8l1.49-23.26H372.23Z" style="fill:#dbdbdb"></path><path d="M444.79,350.68H375.55l-1.13-22.6H446.2Zm-68.4-.89H444l1.3-20.82H375.36Z" style="fill:#dbdbdb"></path><path d="M416.48,312.08H404.14l-.78-6h13.9Zm-11.56-.89H415.7l.55-4.26H404.37Z" style="fill:#dbdbdb"></path><path d="M416.48,342.4H404.14l-.78-6h13.9Zm-11.56-.89H415.7l.55-4.26H404.37Z" style="fill:#dbdbdb"></path><polygon points="380.91 360.98 379.81 368.83 377.59 384.62 373.25 384.62 373.25 360.98 380.91 360.98" style="fill:#ebebeb"></polygon><polygon points="380.91 360.98 379.81 368.83 373.25 368.83 373.25 360.98 380.91 360.98" style="fill:#dbdbdb"></polygon><polygon points="525.13 360.98 526.23 368.83 528.45 384.62 532.79 384.62 532.79 360.98 525.13 360.98" style="fill:#ebebeb"></polygon><polygon points="525.13 360.98 526.23 368.83 532.79 368.83 532.79 360.98 525.13 360.98" style="fill:#dbdbdb"></polygon><path d="M662.93,265.8H531.23V47.55h131.7Zm-127.7-4h123.7V51.55H535.23Z" style="fill:#ebebeb"></path><rect x="593.52" y="52.59" width="4" height="211.21" style="fill:#ebebeb"></rect><rect x="527.61" y="55.63" width="138.95" height="5.57" style="fill:#ebebeb"></rect><rect x="527.61" y="61.9" width="138.95" height="5.57" style="fill:#ebebeb"></rect><rect x="527.61" y="68.17" width="138.95" height="5.57" style="fill:#ebebeb"></rect><rect x="527.61" y="74.43" width="138.95" height="5.57" style="fill:#ebebeb"></rect><rect x="527.61" y="80.7" width="138.95" height="5.57" style="fill:#ebebeb"></rect><rect x="527.61" y="86.97" width="138.95" height="5.57" style="fill:#ebebeb"></rect><rect x="527.61" y="93.23" width="138.95" height="5.57" style="fill:#ebebeb"></rect><rect x="527.61" y="99.5" width="138.95" height="5.57" style="fill:#ebebeb"></rect><rect x="527.61" y="105.76" width="138.95" height="5.57" style="fill:#ebebeb"></rect><rect x="653.67" y="54.5" width="1" height="108.39" style="fill:#263238"></rect><polygon points="655.95 167.55 652.4 167.55 653.29 162.45 655.06 162.45 655.95 167.55" style="fill:#263238"></polygon><rect x="657.28" y="54.5" width="1" height="165.73" style="fill:#263238"></rect><polygon points="659.55 223.99 656 223.99 656.89 218.88 658.66 218.88 659.55 223.99" style="fill:#263238"></polygon><rect x="521.4" y="46.77" width="151.36" height="11.65" style="fill:#dbdbdb"></rect><path d="M218.77,265.8H87.07V47.55h131.7Zm-127.7-4h123.7V51.55H91.07Z" style="fill:#ebebeb"></path><rect x="149.36" y="52.59" width="4" height="211.21" style="fill:#ebebeb"></rect><rect x="83.45" y="55.63" width="138.95" height="5.57" style="fill:#ebebeb"></rect><rect x="83.45" y="61.9" width="138.95" height="5.57" style="fill:#ebebeb"></rect><rect x="83.45" y="68.17" width="138.95" height="5.57" style="fill:#ebebeb"></rect><rect x="83.45" y="74.43" width="138.95" height="5.57" style="fill:#ebebeb"></rect><rect x="83.45" y="80.7" width="138.95" height="5.57" style="fill:#ebebeb"></rect><rect x="83.45" y="86.97" width="138.95" height="5.57" style="fill:#ebebeb"></rect><rect x="83.45" y="93.23" width="138.95" height="5.57" style="fill:#ebebeb"></rect><rect x="83.45" y="99.5" width="138.95" height="5.57" style="fill:#ebebeb"></rect><rect x="83.45" y="105.76" width="138.95" height="5.57" style="fill:#ebebeb"></rect><rect x="209.51" y="54.5" width="1" height="108.39" style="fill:#263238"></rect><polygon points="211.79 167.55 208.24 167.55 209.13 162.45 210.9 162.45 211.79 167.55" style="fill:#263238"></polygon><rect x="213.12" y="54.5" width="1" height="165.73" style="fill:#263238"></rect><polygon points="215.39 223.99 211.84 223.99 212.73 218.88 214.5 218.88 215.39 223.99" style="fill:#263238"></polygon><rect x="77.24" y="46.77" width="151.36" height="11.65" style="fill:#dbdbdb"></rect><path d="M86.57,232.72V377.17h87.32V232.72Zm7.93,53.54H166v37.6H94.5Zm0-46.56H166v37.6H94.5Z" style="fill:#ebebeb"></path><rect x="51.65" y="232.72" width="34.92" height="144.45" transform="translate(138.22 609.89) rotate(180)" style="fill:#dbdbdb"></rect><rect x="148.98" y="239.7" width="16.98" height="37.6" transform="translate(314.95 516.99) rotate(180)" style="fill:#dbdbdb"></rect><rect x="94.5" y="332.25" width="71.02" height="35.85" transform="translate(260.02 700.36) rotate(180)" style="fill:none;stroke:#dbdbdb;stroke-miterlimit:10;stroke-width:0.75px"></rect><rect x="125.93" y="342.34" width="14.11" height="7.14" transform="translate(265.97 691.81) rotate(180)" style="fill:#dbdbdb"></rect><rect x="121.76" y="342.88" width="14.11" height="6.06" transform="translate(257.63 691.81) rotate(180)" style="fill:none;stroke:#dbdbdb;stroke-miterlimit:10;stroke-width:0.75px"></rect><rect x="148.98" y="286.26" width="16.98" height="37.6" transform="translate(314.95 610.12) rotate(180)" style="fill:#dbdbdb"></rect><path d="M122.39,183c-8.2,8-9.58,20.46-7.85,31.34,0,.25.43.18.43,0,0-2.48-.08-4.93-.07-7.38,0-.11.08-.22.13-.33a16.53,16.53,0,0,0,5.33-5.73c1.37-2.69,1.91-5.73,3-8.54.1-.27-.19-.19-.37,0-5,3.68-6.58,7.64-8,12.93a44.26,44.26,0,0,1,.87-8.24,28.12,28.12,0,0,1,6.82-13.73A.16.16,0,0,0,122.39,183Z" style="fill:#a6a6a6"></path><path d="M123.94,184c1.41.05,2.29,2.3,3.39,3a1.06,1.06,0,0,0,1.56-.24c1.09-1.52-.41-3.4-1.81-4.45a16.08,16.08,0,0,0,2.92,1.35,1,1,0,0,0,1.32-.79c.48-2.08-2.12-3-3.91-3,.87-.61,3.35-2.24,2-3s-4.24,1.53-5.19,2.3c-1.4,1.13-3.06,2.82-3.13,4.59C121,185.66,122.85,184.38,123.94,184Z" style="fill:#dbdbdb"></path><path d="M123.53,184.3c1.8-.82,5.27.36,5.56-.32.6-1.39-2.17-2.35-3.67-2.53,1.38-.37,4-1,3.94-2.3-.1-1.62-4.05-.22-6.05,1.31-2.51,1.93-2.5,3.79-2.08,4.16S123.23,184.43,123.53,184.3Z" style="fill:#ebebeb"></path><path d="M103.71,182.22c8.51,7.71,10.35,20.07,9,31,0,.25-.42.2-.43,0-.09-2.48-.11-4.93-.21-7.38l-.14-.32a16.52,16.52,0,0,1-5.54-5.52c-1.48-2.64-2.13-5.66-3.28-8.43-.11-.26.18-.2.37-.07,5.13,3.49,6.87,7.39,8.5,12.62a44.3,44.3,0,0,0-1.18-8.2,28.09,28.09,0,0,0-7.34-13.46C103.36,182.31,103.57,182.08,103.71,182.22Z" style="fill:#a6a6a6"></path><path d="M102.21,183.21c-1.41.11-2.21,2.39-3.28,3.09a1.07,1.07,0,0,1-1.57-.18c-1.14-1.48.28-3.41,1.64-4.52a15.2,15.2,0,0,1-2.87,1.46,1,1,0,0,1-1.35-.74c-.55-2,2-3.07,3.79-3.19-.88-.56-3.42-2.1-2.14-3s4.3,1.37,5.28,2.1c1.44,1.08,3.16,2.71,3.29,4.48C105.16,184.81,103.31,183.61,102.21,183.21Z" style="fill:#dbdbdb"></path><path d="M102.63,183.55c-1.83-.76-5.25.56-5.57-.11-.65-1.37,2.08-2.43,3.56-2.67-1.39-.32-4-.81-4-2.14,0-1.63,4-.39,6.09,1.07,2.58,1.83,2.64,3.69,2.24,4.08S102.93,183.67,102.63,183.55Z" style="fill:#ebebeb"></path><path d="M112.41,202.59a83,83,0,0,0,2.64,12.19.3.3,0,0,0,.59-.12c-.56-3.75-1.58-7.44-2.13-11.2a56.78,56.78,0,0,1-.66-11.5c.36-6.34,2.08-13.07,6.21-18,.09-.12-.1-.28-.19-.17-8.28,9.64-7,21.47-7,22.53-1.17-4-2.38-8.57-6.81-12.64-.19-.17-.34-.09-.31.21.79,7.41,2.85,11.27,7.15,15.23C112.07,200.27,112.22,201.44,112.41,202.59Z" style="fill:#a6a6a6"></path><path d="M119.14,175c1.49-.66,3.54,1.24,5,1.36a1.21,1.21,0,0,0,1.49-1c.37-2.13-2.13-3.32-4.11-3.71,1.25-.07,2.48.26,3.71-.07a1.18,1.18,0,0,0,1-1.49c-.55-2.39-3.71-2-5.59-1.18.6-1.06,2.35-4,.58-4.18s-3.64,3.73-4.23,5c-.88,1.88-1.76,4.47-.93,6.34C117,178.27,118.23,176,119.14,175Z" style="fill:#dbdbdb"></path><path d="M118.89,175.61c1.46-1.76,5.65-2.28,5.61-3.14-.08-1.74-3.43-1.34-5.08-.77,1.24-1.08,3.68-3,2.93-4.37-.92-1.63-4.31,1.81-5.61,4.4-1.64,3.27-.69,5.19-.07,5.37C117.52,177.34,118.65,175.9,118.89,175.61Z" style="fill:#ebebeb"></path><path d="M107,204.82l-3.64,27.88h22.2c-.46-2.47-4.59-27.91-4.59-27.91Z" style="fill:#dbdbdb"></path></g><g id="freepik--Shadow--inject-69"><ellipse cx="375" cy="416.23" rx="279.96" ry="26.23" style="fill:#ebebeb"></ellipse></g><g id="freepik--Floor--inject-69"><polygon points="51.65 377.12 132.49 376.88 213.32 376.79 375 376.63 536.68 376.79 617.51 376.88 698.35 377.12 617.51 377.37 536.68 377.46 375 377.62 213.32 377.45 132.49 377.37 51.65 377.12" style="fill:#263238"></polygon></g><g id="freepik--Plant--inject-69"><path d="M663.7,209.53s-23.53-3.3-18-31.69C645.67,177.84,672,183.74,663.7,209.53Z" style="fill:#EDC300"></path><path d="M663.7,209.53s-23.53-3.3-18-31.69C645.67,177.84,672,183.74,663.7,209.53Z" style="opacity:0.1"></path><path d="M662.51,203.6a44.83,44.83,0,0,0-1.6-4.23c0-.18,0-.37-.06-.54,0-.39-.07-.78-.1-1.17-.07-.85-.12-1.7-.17-2.55-.1-1.69-.21-3.39-.23-5.09,0-.09-.15-.09-.15,0,0,1.7,0,3.4,0,5.1,0,.85.08,1.7.14,2.55,0,.19,0,.37,0,.56a50.73,50.73,0,0,0-4.72-8.06c-.81-1.13-1.66-2.22-2.57-3.27s-1.93-2.09-2.88-3.15c-.06-.07-.16,0-.1.1a42.22,42.22,0,0,1,4.53,6c.72,1.08,1.39,2.19,2,3.32l-.22-.09-.84-.34-1.92-.72c-1.26-.47-2.53-.93-3.79-1.41-.07,0-.12.1-.05.13,1.25.5,2.49,1,3.73,1.56l1.82.79.92.37a2.9,2.9,0,0,0,.62.23c.48.85.95,1.7,1.38,2.57a60.14,60.14,0,0,1,2.87,6.78c.06.16.12.33.17.49a14.1,14.1,0,0,0-1.92-.93c-.81-.38-1.63-.74-2.44-1.11-1.65-.76-3.29-1.53-4.87-2.42-.08,0-.15.08-.07.13,1.62.88,3.2,1.82,4.82,2.7.81.44,1.62.86,2.45,1.27a8.1,8.1,0,0,0,2.21.88,27.28,27.28,0,0,1,1.54,6.67c.27,3.21.24,6.45.31,9.67,0,.06.08.05.09,0,.23-2.92.36-5.87.38-8.8A25.51,25.51,0,0,0,662.51,203.6Z" style="fill:#263238"></path><path d="M658.89,186.9a28,28,0,0,0-.24,5s.07,0,.07,0c.1-1.66.11-3.32.31-5C659,186.84,658.9,186.81,658.89,186.9Z" style="fill:#263238"></path><path d="M652.16,188.32a18.37,18.37,0,0,1-3-1.48c-.08-.06-.15.07-.07.12a11.58,11.58,0,0,0,3,1.46A.05.05,0,0,0,652.16,188.32Z" style="fill:#263238"></path><path d="M664.45,254.61c0-2.6-.07-5.2-.1-7.79-.05-8.64-.12-17.27-.27-25.9q-.2-10.29-.48-20.56a.11.11,0,0,0-.06-.09l0-5.61s-.06-.07-.11-.07-.12,0-.12.07l0,5.62a.16.16,0,0,0-.06.08c-.34,12.2-.65,24.4-.72,36.6,0,2.48,0,5,0,7.44q-.12,11.94-.09,23.87l0,3.79c0,7.28.08,14.56.08,21.84,0,.39.44.58.9.6s1.09-.19,1.09-.64c0-8,.05-16.05.05-24.07C664.47,264.73,664.49,259.67,664.45,254.61Z" style="fill:#263238"></path><path d="M654.63,246.72s-11.32-8.39-22.06-2.72-12.42,27.5-12.42,27.5,15.77,2.25,25.7-7.2C655.42,255.19,654.63,246.72,654.63,246.72Z" style="fill:#EDC300"></path><path d="M657.71,247.23a13.53,13.53,0,0,0-6.56-.85,10.58,10.58,0,0,0-1.38-.14l-1.6-.12-3.3-.23c-2.23-.17-4.47-.3-6.69-.53-.08,0-.1.13,0,.14,2.2.29,4.4.6,6.61.82,1.14.12,2.28.24,3.42.32l.82.08c-.33.07-.67.15-1,.25a26.78,26.78,0,0,0-5.13,2.08c-.89.16-1.77.41-2.65.62-1.4.32-2.79.69-4.18,1.05-2.75.72-5.47,1.53-8.2,2.32a.07.07,0,0,0,0,.14c2.73-.67,5.47-1.28,8.2-1.93l4-.95c.34-.09.69-.16,1-.24a33.1,33.1,0,0,0-8.05,7,44,44,0,0,0-5.59,8.81c0,.09.08.16.13.08a42.57,42.57,0,0,1,6.76-8.88l-.15.46-.63,2c-.42,1.33-.84,2.66-1.24,4a.07.07,0,0,0,.14,0c.48-1.29.93-2.59,1.39-3.89.22-.63.44-1.27.67-1.91l.34-1c0-.1.07-.2.11-.31a40.69,40.69,0,0,1,4-3.42,30.28,30.28,0,0,1,6-3.44l-.12.58c-.11.52-.23,1-.33,1.55-.22,1.07-.43,2.14-.64,3.22-.43,2.19-.69,4.4-1.1,6.6a.07.07,0,0,0,.14,0c.51-2.2,1.16-4.37,1.65-6.58.25-1.1.5-2.2.72-3.31.11-.52.21-1,.32-1.55.06-.29.12-.58.16-.87.2-.08.4-.18.61-.25,3-1.1,6.25-1.9,9.42-1.29a9.27,9.27,0,0,1,6.81,5.45c.1.25.49.1.43-.15A8.74,8.74,0,0,0,657.71,247.23Z" style="fill:#263238"></path><path d="M640.39,256.56l-1,4.3a33.1,33.1,0,0,0-.79,4.18,0,0,0,0,0,.09,0,29.87,29.87,0,0,0,1-4.21l.84-4.25A.07.07,0,0,0,640.39,256.56Z" style="fill:#263238"></path><path d="M629.44,260.2c-1.44.73-2.83,1.56-4.34,2.16-.09,0,0,.18.06.13a46.38,46.38,0,0,0,4.32-2.23S629.48,260.18,629.44,260.2Z" style="fill:#263238"></path><path d="M657.17,231.32s-13.83.88-20.26-8.24-5-22.14-5-22.14,14.52,1.77,20.29,8.31S657.17,231.32,657.17,231.32Z" style="fill:#EDC300"></path><path d="M663.66,245c-.48-1.49-1.07-2.95-1.63-4.4s-1.11-2.78-1.72-4.14a85.46,85.46,0,0,0-4.15-8.15c-1-1.68-2-3.31-3.1-4.92,0-.24-.07-.49-.1-.74-.07-.42-.13-.85-.2-1.28-.13-.88-.29-1.75-.43-2.62-.32-1.91-.71-3.81-1-5.72,0-.09-.16-.09-.14,0,.28,1.89.47,3.79.73,5.68.13.92.25,1.85.39,2.78.05.33.11.67.16,1a100.66,100.66,0,0,0-6.84-8.87c-.33-.38-.67-.75-1-1.13,0-.11-.09-.21-.13-.32l-.3-.79-.6-1.65c-.39-1.08-.73-2.17-1-3.29,0-.09-.16,0-.14.05.28,1.13.58,2.26.91,3.38.16.55.34,1.08.53,1.61,0,.09.06.18.1.27-1.77-1.93-3.61-3.79-5.48-5.62-.06-.07-.16,0-.1.1a98.2,98.2,0,0,1,9.8,12,7.26,7.26,0,0,0-1-.26c-1.06-.21-2.14-.36-3.21-.5-2.26-.28-4.5-.57-6.75-.92a.07.07,0,0,0,0,.14c2.14.42,4.26.9,6.39,1.39,1,.23,2,.43,3,.63a17.82,17.82,0,0,1,2.43.69c.23.32.46.63.68,1,1,1.47,2,3,2.94,4.5l-1.41-.28c-1.07-.2-2.14-.4-3.21-.57-2.11-.35-4.22-.72-6.31-1.19a.07.07,0,0,0,0,.14c2.11.49,4.21,1.07,6.31,1.63,1,.27,2,.52,3,.75l1.54.33a3.79,3.79,0,0,0,.62.1c2,3.28,3.92,6.63,5.67,10.05q1.15,2.26,2.24,4.56c.74,1.57,1.37,3.17,2,4.77C663.27,245.44,663.77,245.31,663.66,245Z" style="fill:#263238"></path><path d="M649.51,213.18c-.27-1.32-.55-2.63-.84-4,0-.09-.15,0-.14.05.27,1.29.52,2.59.75,3.89s.42,2.61.78,3.88c0,0,.05,0,.05,0A28.15,28.15,0,0,0,649.51,213.18Z" style="fill:#263238"></path><path d="M641.44,212.8c-.64-.32-1.32-.58-2-.84l-1.05-.41-.53-.21a3.11,3.11,0,0,1-.59-.26c-.1-.08-.17.1-.06.12a3.32,3.32,0,0,1,.59.24l.52.24,1,.45c.67.29,1.35.59,2,.81A.08.08,0,0,0,641.44,212.8Z" style="fill:#263238"></path><path d="M671.33,220.45s8.37-15.64,21.1-18.06S713,213.07,713,213.07s-9.28,11.86-21,13.93S671.33,220.45,671.33,220.45Z" style="fill:#EDC300"></path><path d="M701,209.4a34.42,34.42,0,0,0-10,.12l.56-.31,2.83-1.45a66.06,66.06,0,0,1,6-2.92c.09,0,0-.18-.06-.13-2,.93-4.06,1.7-6.06,2.62-1,.46-2,.94-3,1.46-.63.33-1.32.64-1.94,1a34.64,34.64,0,0,0-8.09,2.69l1.59-1.73c1.18-1.3,2.35-2.67,3.65-3.85.07-.06,0-.16-.1-.1-1.33,1.21-2.74,2.33-4,3.59-.63.61-1.23,1.24-1.81,1.89-.29.33-.59.66-.86,1a33.49,33.49,0,0,0-17.07,23c0,.09.11.14.13.05a38.46,38.46,0,0,1,9.36-15.84,36.76,36.76,0,0,1,17.06-9.87,37.34,37.34,0,0,1,11.77-1.07A.13.13,0,0,0,701,209.4Z" style="fill:#263238"></path><path d="M713,213.07s-9.29,11.87-21,13.93c-8.91,1.58-16.25-3.07-19.22-5.35l-.65-1.06s6-5.08,17.43-8S713,213.07,713,213.07Z" style="opacity:0.1"></path><path d="M693.57,203.82a31.45,31.45,0,0,0-2.83,1.87,18.09,18.09,0,0,0-2.46,2.25c-.06.07,0,.16.11.1.85-.73,1.7-1.47,2.57-2.16a26.32,26.32,0,0,1,2.68-1.93A.07.07,0,0,0,693.57,203.82Z" style="fill:#263238"></path><path d="M700.55,206.47c-.47.2-.95.37-1.42.56l-1.42.59c-.1,0-.05.21,0,.17l1.42-.58c.48-.19.94-.41,1.42-.6C700.68,206.57,700.64,206.43,700.55,206.47Z" style="fill:#263238"></path><path d="M669.65,240.12s2.24,15.51,13.9,20.93,25.88,0,25.88,0S703.84,227.5,669.65,240.12Z" style="fill:#EDC300"></path><path d="M701.4,251c-1.08-.13-2.15-.31-3.21-.5l-1.57-.3c-.26,0-.54-.12-.82-.16l-.94-.88a47.71,47.71,0,0,0-7.14-5.17,39.09,39.09,0,0,0-4.27-2.2h.22l3.84.17c2.56.12,5.12.18,7.67.34.1,0,.09-.14,0-.14-2.57-.18-5.12-.46-7.68-.68l-3.73-.33-1.93-.17-.49-.05q-1-.37-2-.69a18.26,18.26,0,0,0-9.88-.55c-2.93.75-5.86,2.68-6.62,5.77,0,.11.14.18.19.07,1.09-2.58,4-3.88,6.55-4.42a15.6,15.6,0,0,1,5.28-.1,12.15,12.15,0,0,0,.59,2.34c.32,1.09.64,2.18,1,3.27.66,2.18,1.39,4.34,2,6.52a.07.07,0,0,0,.14,0c-.54-2.18-1-4.37-1.52-6.55-.26-1.07-.53-2.14-.79-3.21a19.08,19.08,0,0,0-.59-2.21,28.39,28.39,0,0,1,3,.72,44.56,44.56,0,0,1,5.28,1.93c.17,1.11.42,2.2.67,3.29.32,1.37.68,2.73,1.11,4.07a.07.07,0,0,0,.13,0c0-.09,0-.17,0-.26h0c-.27-1.27-.55-2.53-.81-3.8-.22-1-.42-2.05-.64-3.07,1.45.66,2.87,1.37,4.25,2.16,0,.31.11.64.15.93.09.53.18,1.06.28,1.59.22,1.19.46,2.39.75,3.57a56.64,56.64,0,0,0,2,6.74.08.08,0,0,0,0,.09l.07.08c.05.06.13,0,.12-.07-.54-2.3-1.16-4.58-1.66-6.89-.26-1.15-.51-2.3-.74-3.46-.12-.57-.22-1.15-.33-1.73,0-.16-.06-.34-.08-.52a49.77,49.77,0,0,1,4.54,3,49.17,49.17,0,0,1,7,6.34c.08.1.25,0,.17-.14a42.78,42.78,0,0,0-2.78-3.39c-.59-.63-1.19-1.23-1.82-1.83l.2,0c.54.09,1.09.17,1.64.24,1.08.15,2.16.25,3.24.38C701.45,251.12,701.49,251,701.4,251Z" style="fill:#263238"></path><path d="M693.2,256.22h0c0-.13,0-.26-.07-.4s-.11-.33-.14-.51h0c-.24-1-.44-2.08-.63-3.13,0-.07-.13-.05-.13,0a12.79,12.79,0,0,0,.89,4.05s.09,0,.08,0Z" style="fill:#263238"></path><path d="M683.44,256a.07.07,0,0,0-.07-.07c-.33-1.37-.64-2.75-.92-4.13-.15-.73-.31-1.45-.44-2.18-.08-.39-.15-.79-.22-1.18a3.48,3.48,0,0,0-.25-1,.07.07,0,0,0-.13,0,6.75,6.75,0,0,0,.29,2.08c.14.76.29,1.52.46,2.27.33,1.53.72,3.05,1.15,4.56a.08.08,0,0,0,.15,0C683.46,256.2,683.45,256.09,683.44,256Z" style="fill:#263238"></path><path d="M700.33,246.5c-2.13-.29-4.25-.6-6.39-.86-.09,0-.13.13,0,.14,2.12.31,4.26.58,6.39.86C700.39,246.65,700.42,246.51,700.33,246.5Z" style="fill:#263238"></path><path d="M663.68,203.75s-7.13-31.31,26.5-44C690.18,159.77,699.5,201,663.68,203.75Z" style="fill:#EDC300"></path><path d="M670.94,186l.36-.22,1.9-1.06,3.9-2.18c2.57-1.44,5.11-2.93,7.69-4.34.08,0,0-.16-.07-.12-2.59,1.41-5.23,2.73-7.83,4.11l-3.86,2-1.57.84c1.12-2.13,2.32-4.22,3.63-6.23,1.76-2.68,3.69-5.23,5.69-7.73a.11.11,0,1,0-.16-.16,53.21,53.21,0,0,0-7.78,9.53c0-.11,0-.22,0-.32,0-.78.06-1.56.07-2.34,0-1.53,0-3.06,0-4.58,0-.1-.14-.09-.14,0-.06,1.5-.24,3-.33,4.51,0,.75-.07,1.5-.1,2.25,0,.4-.05.87,0,1.31-.69,1.1-1.36,2.22-2,3.35a57.93,57.93,0,0,0-3,6.31c0-.78-.09-1.56-.13-2.34-.1-1.71-.31-3.42-.38-5.13a.08.08,0,0,0-.15,0c0,1.71,0,3.43,0,5.14,0,.86.06,1.72.11,2.57l.06,1a57.53,57.53,0,0,0-2.54,8.6,91.37,91.37,0,0,0-1.25,9.46s0,0,0,0a51.39,51.39,0,0,1,1.79-8.43c.41-1.48.85-2.95,1.33-4.41,1.4-.66,2.74-1.48,4.09-2.23s2.81-1.54,4.22-2.31c2.8-1.54,5.61-3.11,8.5-4.47.09,0,0-.16-.07-.12-2.94,1.33-5.89,2.59-8.77,4-1.43.72-2.84,1.49-4.24,2.28-1.17.65-2.37,1.31-3.49,2.07.33-1,.67-1.94,1-2.9C668.5,191.1,669.66,188.51,670.94,186Z" style="fill:#263238"></path><path d="M668.11,178.84a.08.08,0,0,0-.15,0c.12,1.79.18,3.57.37,5.35,0,.1.16.1.16,0C668.43,182.4,668.24,180.62,668.11,178.84Z" style="fill:#263238"></path><path d="M684.23,184.81c-2.1.85-4.23,1.66-6.32,2.53-.06,0,0,.12,0,.1,2.12-.8,4.22-1.66,6.33-2.49C684.36,184.92,684.32,184.78,684.23,184.81Z" style="fill:#263238"></path><path d="M687.43,170.38a53.65,53.65,0,0,0-6,3.21.09.09,0,1,0,.09.15c2-1.14,3.94-2.24,6-3.24C687.59,170.46,687.51,170.34,687.43,170.38Z" style="fill:#263238"></path><rect x="638.41" y="271.45" width="48.51" height="51.13" style="fill:#455a64"></rect><rect x="635.07" y="289.54" width="2.48" height="87.58" style="fill:#263238"></rect><rect x="687.52" y="289.54" width="2.48" height="87.58" style="fill:#263238"></rect><rect x="662.62" y="289.54" width="2.48" height="87.58" style="fill:#263238"></rect><rect x="636.31" y="319.3" width="52.44" height="7.08" style="fill:#263238"></rect></g><g id="freepik--Typewriter--inject-69"><rect x="253.01" y="107.68" width="244.8" height="35.75" style="fill:#263238"></rect><rect x="242.08" y="104.65" width="10.93" height="41.83" style="fill:#37474f"></rect><rect x="497.8" y="104.65" width="10.93" height="41.83" style="fill:#37474f"></rect><rect x="220.68" y="136.39" width="308.63" height="35.75" style="fill:#263238"></rect><rect x="529.32" y="130.44" width="22.28" height="47.65" style="fill:#37474f"></rect><rect x="531.96" y="132.81" width="17" height="1.27" style="fill:#263238"></rect><rect x="531.96" y="135.59" width="17" height="1.27" style="fill:#263238"></rect><rect x="531.96" y="138.36" width="17" height="1.27" style="fill:#263238"></rect><rect x="531.96" y="141.14" width="17" height="1.27" style="fill:#263238"></rect><rect x="531.96" y="143.91" width="17" height="1.27" style="fill:#263238"></rect><rect x="531.96" y="146.69" width="17" height="1.27" style="fill:#263238"></rect><rect x="531.96" y="149.46" width="17" height="1.27" style="fill:#263238"></rect><rect x="531.96" y="152.24" width="17" height="1.27" style="fill:#263238"></rect><rect x="531.96" y="155.01" width="17" height="1.27" style="fill:#263238"></rect><rect x="531.96" y="157.79" width="17" height="1.27" style="fill:#263238"></rect><rect x="531.96" y="160.56" width="17" height="1.27" style="fill:#263238"></rect><rect x="531.96" y="163.34" width="17" height="1.27" style="fill:#263238"></rect><rect x="531.96" y="166.11" width="17" height="1.27" style="fill:#263238"></rect><rect x="531.96" y="168.89" width="17" height="1.27" style="fill:#263238"></rect><rect x="531.96" y="171.67" width="17" height="1.27" style="fill:#263238"></rect><rect x="531.96" y="174.44" width="17" height="1.27" style="fill:#263238"></rect><rect x="198.4" y="130.44" width="22.28" height="47.65" style="fill:#37474f"></rect><rect x="201.04" y="132.81" width="17" height="1.27" style="fill:#263238"></rect><rect x="201.04" y="135.59" width="17" height="1.27" style="fill:#263238"></rect><rect x="201.04" y="138.36" width="17" height="1.27" style="fill:#263238"></rect><rect x="201.04" y="141.14" width="17" height="1.27" style="fill:#263238"></rect><rect x="201.04" y="143.91" width="17" height="1.27" style="fill:#263238"></rect><rect x="201.04" y="146.69" width="17" height="1.27" style="fill:#263238"></rect><rect x="201.04" y="149.46" width="17" height="1.27" style="fill:#263238"></rect><rect x="201.04" y="152.24" width="17" height="1.27" style="fill:#263238"></rect><rect x="201.04" y="155.01" width="17" height="1.27" style="fill:#263238"></rect><rect x="201.04" y="157.79" width="17" height="1.27" style="fill:#263238"></rect><rect x="201.04" y="160.56" width="17" height="1.27" style="fill:#263238"></rect><rect x="201.04" y="163.34" width="17" height="1.27" style="fill:#263238"></rect><rect x="201.04" y="166.11" width="17" height="1.27" style="fill:#263238"></rect><rect x="201.04" y="168.89" width="17" height="1.27" style="fill:#263238"></rect><rect x="201.04" y="171.67" width="17" height="1.27" style="fill:#263238"></rect><rect x="201.04" y="174.44" width="17" height="1.27" style="fill:#263238"></rect><polygon points="198.4 162.66 198.4 147.96 184.69 147.96 152.13 195.11 171.19 206.86 190.01 162.66 198.4 162.66" style="fill:#263238"></polygon><rect x="237.1" y="139.5" width="276.61" height="67.36" style="fill:#EDC300"></rect><rect x="237.1" y="139.5" width="276.61" height="67.36" style="opacity:0.1"></rect><rect x="372.29" y="-1.87" width="8.67" height="236.35" transform="translate(492.94 -260.32) rotate(90)" style="fill:#455a64"></rect><rect x="279.11" y="60.48" width="192.59" height="146.38" style="fill:#fff"></rect><path d="M471.7,60.48l-192.59.14.14-.14.11,146.38-.25-.25,192.59.14-.11.11Zm0,0,.11,146.38v.1h-.11l-192.59.14h-.25v-.24L279,60.48v-.14h.14Z" style="fill:#263238"></path><path d="M302.12,84.41c5.7-.2,11.4-.3,17.1-.38s11.4-.08,17.1-.12,11.41,0,17.11.12l8.55.14c2.85.08,5.7.13,8.55.24-2.85.12-5.7.16-8.55.25l-8.55.14c-5.7.08-11.4.07-17.11.11s-11.4,0-17.1-.12S307.82,84.62,302.12,84.41Z" style="fill:#263238"></path><path d="M302.12,104.65c12.21-.21,24.43-.31,36.64-.39l36.65-.11,36.64.11,18.32.14,18.33.25-18.33.24-18.32.14-36.64.11L338.76,105C326.55,105,314.33,104.85,302.12,104.65Z" style="fill:#263238"></path><path d="M302.12,114.63c12.21-.2,24.43-.3,36.64-.38l36.65-.12,36.64.12,18.32.14,18.33.24-18.33.25-18.32.14-36.64.11L338.76,115C326.55,114.94,314.33,114.84,302.12,114.63Z" style="fill:#263238"></path><path d="M302.12,124.62c12.21-.21,24.43-.3,36.64-.38l36.65-.12,36.64.12,18.32.13,18.33.25-18.33.25-18.32.13-36.64.12L338.76,125C326.55,124.92,314.33,124.83,302.12,124.62Z" style="fill:#263238"></path><path d="M302.12,134.61c12.21-.21,24.43-.31,36.64-.39l36.65-.11,36.64.11,18.32.14,18.33.25-18.33.24-18.32.14-36.64.12L338.76,135C326.55,134.91,314.33,134.81,302.12,134.61Z" style="fill:#263238"></path><path d="M302.12,144.59c6.93-.2,13.87-.3,20.81-.38l20.81-.12,20.81.12,10.41.14c3.47.08,6.94.13,10.41.24-3.47.12-6.94.17-10.41.25l-10.41.14-20.81.11L322.93,145C316,144.9,309.05,144.8,302.12,144.59Z" style="fill:#263238"></path><path d="M302.12,164.57c12.21-.21,24.43-.3,36.64-.38l36.65-.12,36.64.11,18.32.14,18.33.25-18.33.24-18.32.14-36.64.12L338.76,165C326.55,164.87,314.33,164.78,302.12,164.57Z" style="fill:#263238"></path><path d="M302.12,174.56c12.21-.21,24.43-.31,36.64-.39l36.65-.11,36.64.11,18.32.14,18.33.25-18.33.24-18.32.14-36.64.12-36.65-.12C326.55,174.86,314.33,174.76,302.12,174.56Z" style="fill:#263238"></path><path d="M302.12,184.54c12.21-.2,24.43-.3,36.64-.38l36.65-.12,36.64.12,18.32.14,18.33.24-18.33.25-18.32.14-36.64.11-36.65-.11C326.55,184.85,314.33,184.75,302.12,184.54Z" style="fill:#263238"></path><polygon points="606.66 366.07 606.66 411.66 143.34 411.66 143.34 366.07 198.4 283.7 198.4 206.85 551.6 206.85 551.6 283.7 606.66 366.07" style="fill:#EDC300"></polygon><rect x="143.34" y="366.07" width="463.32" height="45.59" style="opacity:0.1"></rect><rect x="198.4" y="206.86" width="353.21" height="76.84" style="opacity:0.1"></rect><path d="M551.6,206.86H198.4l38.7-46.65h98.77c.81,0,4.71,5.95,4.1,6.69-1,1.21-43.37,5.69-43.37,9.11,0,2.82,36.42,12.47,78.41,12.47s78.4-9.65,78.4-12.47c0-3.42-42.36-7.9-43.38-9.11-.61-.74,3.29-6.69,4.1-6.69H512.9Z" style="fill:#EDC300"></path><rect x="258.45" y="111.97" width="8.67" height="48.23" style="fill:#455a64"></rect><rect x="372.29" y="29.65" width="8.67" height="236.35" transform="translate(524.45 -228.81) rotate(90)" style="fill:#455a64"></rect><rect x="486.13" y="111.97" width="8.67" height="48.23" style="fill:#455a64"></rect><rect x="284.81" y="141.38" width="33.22" height="12.88" style="fill:#263238"></rect><rect x="435.23" y="141.38" width="33.22" height="12.88" style="fill:#263238"></rect><polygon points="524.63 288.93 225.37 288.93 183.38 355.65 566.62 355.65 524.63 288.93" style="fill:#263238"></polygon><rect x="236.64" y="286.86" width="17.34" height="9.12" style="fill:#fff"></rect><rect x="239.07" y="295.97" width="12.49" height="3.58" style="fill:#ebebeb"></rect><rect x="244.37" y="299.55" width="1.88" height="56.1" style="fill:#455a64"></rect><rect x="262.02" y="286.86" width="17.34" height="9.12" style="fill:#fff"></rect><rect x="264.45" y="295.97" width="12.49" height="3.58" style="fill:#ebebeb"></rect><rect x="269.76" y="299.55" width="1.88" height="56.1" style="fill:#455a64"></rect><rect x="287.41" y="286.86" width="17.34" height="9.12" style="fill:#fff"></rect><rect x="289.83" y="295.97" width="12.49" height="3.58" style="fill:#ebebeb"></rect><rect x="295.14" y="299.55" width="1.88" height="56.1" style="fill:#455a64"></rect><rect x="312.79" y="286.86" width="17.34" height="9.12" style="fill:#fff"></rect><rect x="315.21" y="295.97" width="12.49" height="3.58" style="fill:#ebebeb"></rect><rect x="320.52" y="299.55" width="1.88" height="56.1" style="fill:#455a64"></rect><rect x="338.17" y="286.86" width="17.34" height="9.12" style="fill:#fff"></rect><rect x="340.6" y="295.97" width="12.49" height="3.58" style="fill:#ebebeb"></rect><rect x="345.9" y="299.55" width="1.88" height="56.1" style="fill:#455a64"></rect><rect x="363.56" y="286.86" width="17.34" height="9.12" style="fill:#fff"></rect><rect x="365.98" y="295.97" width="12.49" height="3.58" style="fill:#ebebeb"></rect><rect x="371.29" y="299.55" width="1.88" height="56.1" style="fill:#455a64"></rect><rect x="388.94" y="286.86" width="17.34" height="9.12" style="fill:#fff"></rect><rect x="391.36" y="295.97" width="12.49" height="3.58" style="fill:#ebebeb"></rect><rect x="396.67" y="299.55" width="1.88" height="56.1" style="fill:#455a64"></rect><rect x="414.32" y="286.86" width="17.34" height="9.12" style="fill:#fff"></rect><rect x="416.75" y="295.97" width="12.49" height="3.58" style="fill:#ebebeb"></rect><rect x="422.05" y="299.55" width="1.88" height="56.1" style="fill:#455a64"></rect><rect x="439.7" y="286.86" width="17.34" height="9.12" style="fill:#fff"></rect><rect x="442.13" y="295.97" width="12.49" height="3.58" style="fill:#ebebeb"></rect><rect x="447.43" y="299.55" width="1.88" height="56.1" style="fill:#455a64"></rect><rect x="465.09" y="286.86" width="17.34" height="9.12" style="fill:#fff"></rect><rect x="467.51" y="295.97" width="12.49" height="3.58" style="fill:#ebebeb"></rect><rect x="472.82" y="299.55" width="1.88" height="56.1" style="fill:#455a64"></rect><rect x="490.47" y="286.86" width="17.34" height="9.12" style="fill:#fff"></rect><rect x="492.89" y="295.97" width="12.49" height="3.58" style="fill:#ebebeb"></rect><rect x="498.2" y="299.55" width="1.88" height="56.1" style="fill:#455a64"></rect><rect x="515.85" y="286.86" width="17.34" height="9.12" style="fill:#fff"></rect><rect x="518.28" y="295.97" width="12.49" height="3.58" style="fill:#ebebeb"></rect><rect x="523.58" y="299.55" width="1.88" height="56.1" style="fill:#455a64"></rect><rect x="214.79" y="305.08" width="17.34" height="9.12" style="fill:#fff"></rect><rect x="217.22" y="314.19" width="12.49" height="3.58" style="fill:#ebebeb"></rect><rect x="222.52" y="317.77" width="1.88" height="37.88" style="fill:#455a64"></rect><rect x="240.18" y="305.08" width="17.34" height="9.12" style="fill:#fff"></rect><rect x="242.6" y="314.19" width="12.49" height="3.58" style="fill:#ebebeb"></rect><rect x="247.91" y="317.77" width="1.88" height="37.88" style="fill:#455a64"></rect><rect x="265.56" y="305.08" width="17.34" height="9.12" style="fill:#fff"></rect><rect x="267.98" y="314.19" width="12.49" height="3.58" style="fill:#ebebeb"></rect><rect x="273.29" y="317.77" width="1.88" height="37.88" style="fill:#455a64"></rect><rect x="290.94" y="305.08" width="17.34" height="9.12" style="fill:#fff"></rect><rect x="293.37" y="314.19" width="12.49" height="3.58" style="fill:#ebebeb"></rect><rect x="298.67" y="317.77" width="1.88" height="37.88" style="fill:#455a64"></rect><rect x="316.32" y="305.08" width="17.34" height="9.12" style="fill:#fff"></rect><rect x="318.75" y="314.19" width="12.49" height="3.58" style="fill:#ebebeb"></rect><rect x="324.06" y="317.77" width="1.88" height="37.88" style="fill:#455a64"></rect><rect x="341.71" y="305.08" width="17.34" height="9.12" style="fill:#fff"></rect><rect x="344.13" y="314.19" width="12.49" height="3.58" style="fill:#ebebeb"></rect><rect x="349.44" y="317.77" width="1.88" height="37.88" style="fill:#455a64"></rect><rect x="367.09" y="305.08" width="17.34" height="9.12" style="fill:#fff"></rect><rect x="369.52" y="314.19" width="12.49" height="3.58" style="fill:#ebebeb"></rect><rect x="374.82" y="317.77" width="1.88" height="37.88" style="fill:#455a64"></rect><rect x="392.47" y="305.08" width="17.34" height="9.12" style="fill:#fff"></rect><rect x="394.9" y="314.19" width="12.49" height="3.58" style="fill:#ebebeb"></rect><rect x="400.2" y="317.77" width="1.88" height="37.88" style="fill:#455a64"></rect><rect x="417.86" y="305.08" width="17.34" height="9.12" style="fill:#fff"></rect><rect x="420.28" y="314.19" width="12.49" height="3.58" style="fill:#ebebeb"></rect><rect x="425.59" y="317.77" width="1.88" height="37.88" style="fill:#455a64"></rect><rect x="443.24" y="305.08" width="17.34" height="9.12" style="fill:#fff"></rect><rect x="445.66" y="314.19" width="12.49" height="3.58" style="fill:#ebebeb"></rect><rect x="450.97" y="317.77" width="1.88" height="37.88" style="fill:#455a64"></rect><rect x="468.62" y="305.08" width="17.34" height="9.12" style="fill:#fff"></rect><rect x="471.05" y="314.19" width="12.49" height="3.58" style="fill:#ebebeb"></rect><rect x="476.35" y="317.77" width="1.88" height="37.88" style="fill:#455a64"></rect><rect x="494" y="305.08" width="17.34" height="9.12" style="fill:#fff"></rect><rect x="496.43" y="314.19" width="12.49" height="3.58" style="fill:#ebebeb"></rect><rect x="501.74" y="317.77" width="1.88" height="37.88" style="fill:#455a64"></rect><rect x="224.4" y="268.64" width="17.34" height="9.12" style="fill:#fff"></rect><rect x="226.83" y="277.75" width="12.49" height="3.58" style="fill:#ebebeb"></rect><rect x="232.13" y="281.33" width="1.88" height="74.32" style="fill:#455a64"></rect><rect x="249.78" y="268.64" width="17.34" height="9.12" style="fill:#fff"></rect><rect x="252.21" y="277.75" width="12.49" height="3.58" style="fill:#ebebeb"></rect><rect x="257.52" y="281.33" width="1.88" height="74.32" style="fill:#455a64"></rect><rect x="275.17" y="268.64" width="17.34" height="9.12" style="fill:#fff"></rect><rect x="277.59" y="277.75" width="12.49" height="3.58" style="fill:#ebebeb"></rect><rect x="282.9" y="281.33" width="1.88" height="74.32" style="fill:#455a64"></rect><rect x="300.55" y="268.64" width="17.34" height="9.12" style="fill:#fff"></rect><rect x="302.97" y="277.75" width="12.49" height="3.58" style="fill:#ebebeb"></rect><rect x="308.28" y="281.33" width="1.88" height="74.32" style="fill:#455a64"></rect><rect x="325.93" y="268.64" width="17.34" height="9.12" style="fill:#fff"></rect><rect x="328.36" y="277.75" width="12.49" height="3.58" style="fill:#ebebeb"></rect><rect x="333.66" y="281.33" width="1.88" height="74.32" style="fill:#455a64"></rect><rect x="351.32" y="268.64" width="17.34" height="9.12" style="fill:#fff"></rect><rect x="353.74" y="277.75" width="12.49" height="3.58" style="fill:#ebebeb"></rect><rect x="359.05" y="281.33" width="1.88" height="74.32" style="fill:#455a64"></rect><rect x="376.7" y="268.64" width="17.34" height="9.12" style="fill:#fff"></rect><rect x="379.12" y="277.75" width="12.49" height="3.58" style="fill:#ebebeb"></rect><rect x="384.43" y="281.33" width="1.88" height="74.32" style="fill:#455a64"></rect><rect x="402.08" y="268.64" width="17.34" height="9.12" style="fill:#fff"></rect><rect x="404.51" y="277.75" width="12.49" height="3.58" style="fill:#ebebeb"></rect><rect x="409.81" y="281.33" width="1.88" height="74.32" style="fill:#455a64"></rect><rect x="427.46" y="268.64" width="17.34" height="9.12" style="fill:#fff"></rect><rect x="429.89" y="277.75" width="12.49" height="3.58" style="fill:#ebebeb"></rect><rect x="435.2" y="281.33" width="1.88" height="74.32" style="fill:#455a64"></rect><rect x="452.85" y="268.64" width="17.34" height="9.12" style="fill:#fff"></rect><rect x="455.27" y="277.75" width="12.49" height="3.58" style="fill:#ebebeb"></rect><rect x="460.58" y="281.33" width="1.88" height="74.32" style="fill:#455a64"></rect><rect x="478.23" y="268.64" width="17.34" height="9.12" style="fill:#fff"></rect><rect x="480.65" y="277.75" width="12.49" height="3.58" style="fill:#ebebeb"></rect><rect x="485.96" y="281.33" width="1.88" height="74.32" style="fill:#455a64"></rect><rect x="503.61" y="268.64" width="17.34" height="9.12" style="fill:#fff"></rect><rect x="506.04" y="277.75" width="12.49" height="3.58" style="fill:#ebebeb"></rect><rect x="511.34" y="281.33" width="1.88" height="74.32" style="fill:#455a64"></rect><rect x="228.42" y="323.3" width="17.34" height="9.12" style="fill:#fff"></rect><rect x="230.85" y="332.42" width="12.49" height="3.58" style="fill:#ebebeb"></rect><rect x="236.15" y="335.99" width="1.88" height="19.66" style="fill:#455a64"></rect><rect x="253.81" y="323.3" width="17.34" height="9.12" style="fill:#fff"></rect><rect x="256.23" y="332.42" width="12.49" height="3.58" style="fill:#ebebeb"></rect><rect x="261.54" y="335.99" width="1.88" height="19.66" style="fill:#455a64"></rect><rect x="279.19" y="323.3" width="17.34" height="9.12" style="fill:#fff"></rect><rect x="281.61" y="332.42" width="12.49" height="3.58" style="fill:#ebebeb"></rect><rect x="286.92" y="335.99" width="1.88" height="19.66" style="fill:#455a64"></rect><rect x="304.57" y="323.3" width="17.34" height="9.12" style="fill:#fff"></rect><rect x="307" y="332.42" width="12.49" height="3.58" style="fill:#ebebeb"></rect><rect x="312.3" y="335.99" width="1.88" height="19.66" style="fill:#455a64"></rect><rect x="329.95" y="323.3" width="17.34" height="9.12" style="fill:#fff"></rect><rect x="332.38" y="332.42" width="12.49" height="3.58" style="fill:#ebebeb"></rect><rect x="337.69" y="335.99" width="1.88" height="19.66" style="fill:#455a64"></rect><rect x="355.34" y="323.3" width="17.34" height="9.12" style="fill:#fff"></rect><rect x="357.76" y="332.42" width="12.49" height="3.58" style="fill:#ebebeb"></rect><rect x="363.07" y="335.99" width="1.88" height="19.66" style="fill:#455a64"></rect><rect x="380.72" y="323.3" width="17.34" height="9.12" style="fill:#fff"></rect><rect x="383.15" y="332.42" width="12.49" height="3.58" style="fill:#ebebeb"></rect><rect x="388.45" y="335.99" width="1.88" height="19.66" style="fill:#455a64"></rect><rect x="406.1" y="323.3" width="17.34" height="9.12" style="fill:#fff"></rect><rect x="408.53" y="332.42" width="12.49" height="3.58" style="fill:#ebebeb"></rect><rect x="413.83" y="335.99" width="1.88" height="19.66" style="fill:#455a64"></rect><rect x="431.49" y="323.3" width="17.34" height="9.12" style="fill:#fff"></rect><rect x="433.91" y="332.42" width="12.49" height="3.58" style="fill:#ebebeb"></rect><rect x="439.22" y="335.99" width="1.88" height="19.66" style="fill:#455a64"></rect><rect x="456.87" y="323.3" width="17.34" height="9.12" style="fill:#fff"></rect><rect x="459.29" y="332.42" width="12.49" height="3.58" style="fill:#ebebeb"></rect><rect x="464.6" y="335.99" width="1.88" height="19.66" style="fill:#455a64"></rect><rect x="482.25" y="323.3" width="17.34" height="9.12" style="fill:#fff"></rect><rect x="484.68" y="332.42" width="12.49" height="3.58" style="fill:#ebebeb"></rect><rect x="489.98" y="335.99" width="1.88" height="19.66" style="fill:#455a64"></rect><rect x="507.63" y="323.3" width="17.34" height="9.12" style="fill:#fff"></rect><rect x="510.06" y="332.42" width="12.49" height="3.58" style="fill:#ebebeb"></rect><rect x="515.37" y="335.99" width="1.88" height="19.66" style="fill:#455a64"></rect><path d="M462.14,358.1s-65.32,4.64-87.14,4.64-87.14-4.64-87.14-4.64V342H462.14Z" style="fill:#ebebeb"></path><rect x="287.86" y="342.01" width="174.28" height="6.55" style="fill:#fff"></rect><rect x="224.4" y="225.66" width="20.91" height="9.65" style="fill:#fff"></rect><rect x="252.96" y="225.66" width="20.91" height="9.65" style="fill:#fff"></rect><circle cx="508.92" cy="230.49" r="8.4" transform="translate(168.05 673.13) rotate(-76.77)" style="fill:#fff"></circle></g><g id="freepik--Character--inject-69"><path d="M489.76,470.94c2.05.25,58.28-11.83,60.08-13.61.22-.2-.77-5.3-2.23-12.27l0-.14c-.91-4.42-16.41-40.32-16.41-40.32l-36.48,9.3,15.74,33.35s-6.93,4.77-12.88,9.32l0,0a80.65,80.65,0,0,0-7.52,6.12C488.25,464.85,487.72,470.72,489.76,470.94Z" style="fill:#dd6a57"></path><path d="M549.84,457.33c-1.8,1.77-58,13.85-60.08,13.61s-1.51-6.09.25-8.23a80.13,80.13,0,0,1,7.52-6.13l0,0c2.28-1.74,4.7-3.52,6.83-5-7.43,6.78-12.14,17.06,42.7-8.26a13.41,13.41,0,0,1,.5,1.66l0,.14C549.07,452,550.06,457.13,549.84,457.33Z" style="fill:#263238"></path><path d="M507.73,446.8l39.09-10.75s-30.45-67.43-29.36-70.8c.72-2.25,48.71-1.29,63.06-13.59,14.86-12.73,4.13-38.67,4.13-38.67l-40.34-1.14s.5,8.43-1.07,9.71c-1,.85-56.31,4.42-67.34,24.45C465.89,364.2,507.73,446.8,507.73,446.8Z" style="fill:#37474f"></path><path d="M517.46,365.25c-.19.57.53,3,1.87,6.6L489.51,406.8C479.72,383,470.63,355.58,475.9,346c11-20,66.3-23.61,67.34-24.46,1.56-1.27,1.07-9.71,1.07-9.71l25.6.72-43.77,51.28C521,364.3,517.64,364.66,517.46,365.25Z" style="fill:#263238"></path><path d="M507,438.56a23.55,23.55,0,0,1,3.19-1.1c1.13-.36,2.26-.72,3.39-1,2.23-.66,4.47-1.29,6.73-1.87,4.53-1.17,9.08-2.32,13.65-3.37,2.38-.55,7.48-1.74,7.8-1.68.15,0,.17.28,0,.32-4.43,1.47-8.92,2.71-13.4,4s-9,2.49-13.51,3.52c-1.25.29-2.52.54-3.78.81a28.37,28.37,0,0,1-4,.76C506.93,438.88,506.81,438.63,507,438.56Z" style="fill:#263238"></path><path d="M582.3,320.63c-.09-1.35-.21-2.7-.33-4.05,0-.15-.26-.16-.25,0,.41,5.47.83,11.07-.3,16.48a23.52,23.52,0,0,1-7.5,12.89c-8.18,7.28-19.42,9.21-29.89,10.75-6,.87-12,1.51-18.07,2-3,.22-5.92.39-8.88.5s-5.89.08-8.82.17c-.93,0-1.77.44-1.65,1.5a7.58,7.58,0,0,0,.66,1.87l.9,2.16c1.11,2.69,2.24,5.38,3.37,8.06q3.48,8.31,7.09,16.56,7.14,16.39,14.85,32.54l1.92,4c0,.09.17,0,.13-.07q-7.35-16.33-14.5-32.76c-2.36-5.43-4.73-10.86-7.07-16.31l-3.48-8.17c-.57-1.37-1.15-2.73-1.72-4.1-.29-.68-.57-1.36-.86-2.05s-1.12-1.93-.48-2.44c.43-.35,1.3-.2,1.81-.21l2.34,0c1.48,0,3,0,4.45-.08,3-.08,6-.22,9-.41,5.87-.37,11.74-1,17.57-1.78,10.4-1.42,21.71-3,30.17-9.81A25,25,0,0,0,581,336.41C582.69,331.35,582.66,325.89,582.3,320.63Z" style="fill:#263238"></path><path d="M407,420.51c1.42,1.49,52.43,28,54.95,27.82.3,0,2.79-4.57,6.11-10.87l.07-.12c2.11-4,21.26-37.46,21.26-37.46l-31.73-17L438,415.43s-8.38-.74-15.87-1h0a80.43,80.43,0,0,0-9.7-.08C409.69,414.85,405.54,419,407,420.51Z" style="fill:#dd6a57"></path><path d="M468.42,436.77c-.13.22-.23.41-.31.56l-.07.13c-3.32,6.3-5.81,10.86-6.11,10.87-2.52.22-53.53-26.33-54.95-27.83s2.71-5.66,5.43-6.18a78.45,78.45,0,0,1,9.71.08h0c3.19.13,6.53.33,9.32.53C421.17,414.9,408.27,419.32,468.42,436.77Z" style="fill:#263238"></path><path d="M438.29,410.1l38.26,20.24s31.64-60.73,35.05-64.61c4.54-5.17,61.93,3.62,75.9-13.11,14.44-17.3,2.92-39.46,2.92-39.46l-43.81-1.05a36.61,36.61,0,0,0,2.12,12s-50-4.14-64.52,9.31C473.08,343.76,438.29,410.1,438.29,410.1Z" style="fill:#37474f"></path><path d="M556.61,328.74a75.76,75.76,0,0,0-6.87-4.42,29.42,29.42,0,0,0-5.23-2.26c-1.27-.33-1.83-.44-.64.15l3.19,1.61-.68,0c-.86-.07-1.72-.12-2.58-.16-1.69-.08-3.37-.11-5.06-.16-3.42-.1-6.81.15-10.22.24a.07.07,0,0,0,0,.14c3.4,0,6.82.23,10.22.29,1.69,0,3.37.12,5.06.19l2.47.1a18.18,18.18,0,0,0,2.09.05l.93.47c2.45,1.23,4.89,2.5,7.25,3.9A.06.06,0,1,0,556.61,328.74Z" style="fill:#263238"></path><path d="M545.62,310.45c.39,2.08.73,4.17,1.2,6.23.21.95.42,1.91.72,2.83s.66,1.68,1.53,1.9,1.35-.6,1.31-1.45a26.84,26.84,0,0,0-.36-2.82c-.15-1.08-.3-2.16-.44-3.23-.06-.54-.13-1.08-.19-1.62,0-.14-.06-1.17-.12-1.46,0,0,0,0,0,0h0s-.06,0-.06-.06,0-.09.06-.15a.07.07,0,0,1,.09,0c.19.12.19.39.24.59.14.52.28,1.05.4,1.58.23,1,.45,2,.64,3l.57,3a4.52,4.52,0,0,1,.06,2.28,1.73,1.73,0,0,1-1.68,1.22l.1.21a6,6,0,0,1,.19.64c.07.21.13.43.18.65a3.11,3.11,0,0,1,0,.32c0,.12,0,.23,0,.35a.17.17,0,0,1-.32.1,3,3,0,0,0-.18-.3,3.62,3.62,0,0,1-.13-.35c-.05-.21-.1-.42-.14-.63s-.09-.42-.12-.63,0-.26,0-.38a2.41,2.41,0,0,1-1.15-.52,4,4,0,0,1-1.12-1.94c-.26-.87-.45-1.77-.64-2.66a38.39,38.39,0,0,1-.93-6.67A.19.19,0,0,1,545.62,310.45Z" style="fill:#263238"></path><path d="M566.6,316.83c.13,1,.19,2.06.37,3.08a29.62,29.62,0,0,0,.65,3,10.56,10.56,0,0,0,1.1,2.72,10,10,0,0,0,1.87,2.13,17,17,0,0,0,4.66,3,22.83,22.83,0,0,0,2.63.93q.71.19,1.41.33a3.13,3.13,0,0,1,1.14.33.23.23,0,0,1,0,.4,4.2,4.2,0,0,1-2.14-.05,16,16,0,0,1-2.25-.53,16.49,16.49,0,0,1-4.19-2.06,13.45,13.45,0,0,1-3.42-3.14,10.18,10.18,0,0,1-1.68-4.32,20.55,20.55,0,0,1-.3-5.75A.1.1,0,0,1,566.6,316.83Z" style="fill:#263238"></path><path d="M446.31,403.24a23,23,0,0,1,3.08,1.39c1.07.52,2.13,1,3.19,1.56,2.08,1.06,4.14,2.14,6.17,3.26,4.11,2.27,8.2,4.55,12.24,6.93,2.11,1.23,6.64,3.87,6.83,4.13s-.07.32-.2.26c-4.22-2-8.34-4.15-12.46-6.32s-8.23-4.34-12.24-6.7c-1.11-.66-2.2-1.34-3.3-2a28.68,28.68,0,0,1-3.44-2.2C446.08,403.46,446.16,403.19,446.31,403.24Z" style="fill:#263238"></path><path d="M590.16,323.34a.15.15,0,0,0-.29,0c-.14,9.52-1.86,20.12-9.34,26.77-8.2,7.3-19.8,7.92-30.23,7.59-6-.18-11.95-.48-17.93-.42s-12.1.2-18.08.82a9.92,9.92,0,0,0-6.2,2.79,31.76,31.76,0,0,0-4.2,5.75q-4.68,7.37-9.09,14.92-8.76,15-16.29,30.66c-.62,1.3-1.24,2.6-1.85,3.9,0,.09.09.16.13.08q7.63-15.72,16.37-30.86,4.35-7.59,9-15c1.46-2.32,2.86-4.7,4.47-6.92A10.83,10.83,0,0,1,512.2,359a22.39,22.39,0,0,1,4.47-.54c1.53-.11,3.07-.2,4.6-.27q4.49-.23,9-.29c6-.08,12.06.14,18.09.39,10.47.43,21.92.33,30.75-6.13A24.66,24.66,0,0,0,587.42,341a44.59,44.59,0,0,0,2.66-14.1C590.13,325.74,590.16,324.54,590.16,323.34Z" style="fill:#263238"></path><path d="M526.49,363.55c-2.14,0-4.28,0-6.41.05a24.94,24.94,0,0,0-5.32.36c-1.62.36-2.91.53-4.28,2.3-1.7,2.22-11.1,19.39-15.05,27q-1.65,3.17-3.25,6.35c-1.1,2.2-2.08,4.45-3.17,6.65a.07.07,0,0,0,.12.07c1-1.84,2-3.62,3-5.44s2-3.66,2.95-5.49q2.94-5.56,5.89-11.12c1.95-3.67,4.31-7.24,6.29-10.89,1.67-3.07,3.94-7.26,5.47-7.86a25.53,25.53,0,0,1,6.65-1.45c2.36-.11,4.72-.2,7.08-.35A.09.09,0,0,0,526.49,363.55Z" style="fill:#263238"></path><path d="M561.36,266.87c-5.33,8.3-37.71,41.47-59.2,37.83-7.29-1.23-3.64-30.55,13.68-58,.52-.82,22.11,5,21.37,10.25-.08.56-5.45,13.23-5.45,13.23s8.3-3.45,23.5-9C562.45,258.5,564.54,261.92,561.36,266.87Z" style="fill:#dd6a57"></path><path d="M513.13,251.81s3.82-8.77,9.35-13.42c3.82-3.21,9.22-8.43,23.28-3.49,3.33,1.17,8.6,7.12,6.38,9s-6.33-4.29-11.28-5.06c0,0,4.4,5.44,3.09,8.73a64.68,64.68,0,0,1-4,8.37,13.29,13.29,0,0,1-1.63-.61s-1.32,3-6,4.86Z" style="fill:#dd6a57"></path><path d="M526.61,235.91c2.62,0,8.16.24,12.64,2,5,1.93,14,7,12.58,10.64-1.07,2.68-4.7,1-4.7,1s3.31,2.88,1.81,5.09c-1.37,2-4.1.59-4.1.59s1.71,2.09,0,3.78c-2,2-6.47-3.72-10.31-3.44C533.69,255.65,526.61,235.91,526.61,235.91Z" style="fill:#dd6a57"></path><path d="M536.34,242.8a21.19,21.19,0,0,1,10.77,6.66c.07.09,0,.19,0,.12a52.35,52.35,0,0,0-10.76-6.74S536.31,242.79,536.34,242.8Z" style="fill:#263238"></path><path d="M539,237.36A21.29,21.29,0,0,1,549.77,244c.07.09,0,.18,0,.12A52.62,52.62,0,0,0,539,237.41S539,237.36,539,237.36Z" style="fill:#263238"></path><path d="M534.54,247.88a23.84,23.84,0,0,1,10.36,7.29c.06.09,0,.19,0,.12a56.11,56.11,0,0,0-10.33-7.37S534.51,247.87,534.54,247.88Z" style="fill:#263238"></path><path d="M537.89,256.4a10.18,10.18,0,0,0-5.92-1.91.06.06,0,0,0,0,.12c1.7.46,3.08.91,3.11.92-2.3,2.54-6.2,3.46-7.87,3.71-.11,0-.08.17,0,.18,3,.16,6.46-1.12,8.06-3.81a27,27,0,0,0,2.57.87A.05.05,0,0,0,537.89,256.4Z" style="fill:#263238"></path><path d="M506.74,258.76l28.55,3.39-3.53,8s15-6.23,23.09-9.16,10.59.75,5.51,7.64-21.75,22.89-34.26,30c-11.6,6.58-19.73,7.54-24.19,6.2S492.46,290.46,506.74,258.76Z" style="fill:#dbdbdb"></path><path d="M531.76,270.14c-2.81,6.71-5.74,13.37-8.86,19.94-.87,1.83-1.72,3.67-2.58,5.5,0,.06.08.11.11.05a102,102,0,0,0,5.19-9.6c1.55-3.25,3-6.58,4.27-10q1.05-2.93,2-5.89A.07.07,0,0,0,531.76,270.14Z" style="fill:#263238"></path><path d="M518,266.71c-2.12-.27-10.55-1.21-12.65-1.22-.06,0-.06.1,0,.12,2.05.5,10.51,1.66,12.63,1.92,4.23.51,8.48,1.1,12.74,1.24.09,0,.12-.13,0-.15C526.59,267.72,522.3,267.24,518,266.71Z" style="fill:#263238"></path><path d="M560.36,268.62c-5.07,6.89-21.75,22.9-34.26,30-2.21,1.26-4.31,2.31-6.26,3.18L558,260.1C563.49,259.2,564.7,262.73,560.36,268.62Z" style="fill:#c7c7c7"></path><path d="M540.72,320.68l54.53-.67s-14.93-45.35-26.49-57c-5.27-5.28-10.22-4.3-14.33-.67-1,.91-13.42,18.27-14.34,24.08-.82,5.13,3.35,10.27,3.35,10.27Z" style="fill:#dbdbdb"></path><path d="M558.94,296.35a46.12,46.12,0,0,0-6.75.16c-1.11.12-2.21.3-3.31.49-.55.1-1.1.18-1.65.26a7.34,7.34,0,0,1-1.75.08,0,0,0,0,0,0,.08,12.88,12.88,0,0,0,1.64.2,12.16,12.16,0,0,0,1.6-.07c1.14-.12,2.26-.28,3.39-.41,2.28-.26,4.56-.51,6.85-.6C559.05,296.54,559.05,296.36,558.94,296.35Z" style="fill:#263238"></path><path d="M564.16,299.1a48.84,48.84,0,0,0-5.47-1.05c-.93-.11-1.85-.18-2.78-.22l-1.33,0c-.49,0-1,.06-1.47,0-.05,0-.06.08,0,.08.46,0,.92.13,1.38.19l1.38.15c.92.11,1.84.23,2.76.33,1.85.19,3.68.41,5.52.67A.08.08,0,0,0,564.16,299.1Z" style="fill:#263238"></path><path d="M570.1,264.4c10.17,11.86,30,40.23,24.55,47.19-9,11.45-36.45,25.69-43.61,28-3.12,1-14.83-23-11.6-24.35,4.48-1.9,31.82-14,31.59-16.16-.12-1.2-3.48-11.18-6.58-24.08C560.85,260,565.25,258.75,570.1,264.4Z" style="fill:#dd6a57"></path><path d="M541.25,314.66s-10.32,2.4-17,4.3c-3.72,1.05-9.94,3.43-12.32,5.46-3.56,3-16.52,18-13,21.2,3.22,2.92,12.73-11.34,12.73-11.34s-10.86,13.54-6.34,16.33,13.12-14.74,13.12-14.74-10.85,14.17-5.73,16.31c3.87,1.62,12.55-13.82,12.55-13.82s-9.24,12.23-5.33,14.07c4.32,2,13.22-11.72,13.22-11.72,10.72,3,17.05.05,21.31-2.59C555.52,337.48,541.25,314.66,541.25,314.66Z" style="fill:#dd6a57"></path><path d="M515.14,329.35c-1.33,1.55-2.69,3.1-3.88,4.76s-2.33,3.36-3.36,5.12a34.76,34.76,0,0,0-3.36,7.23c1.82-4.38,6-10.38,7.18-12s2.3-3.37,3.49-5C515.24,329.35,515.17,329.31,515.14,329.35Z" style="fill:#263238"></path><path d="M521.21,333.54c-1.62,2-3.3,4-4.83,6.14s-3.55,5.13-4.92,7.34c-.1.17.1.39.21.23,1.46-2.15,3.67-5.14,5.15-7.28s2.89-4.32,4.44-6.39C521.28,333.55,521.23,333.51,521.21,333.54Z" style="fill:#263238"></path><path d="M527.06,336.21a58.28,58.28,0,0,0-6.66,9.94c-.1.18.06.16.17,0,2.16-3.35,3.82-6,6.59-9.84C527.21,336.24,527.11,336.14,527.06,336.21Z" style="fill:#263238"></path><path d="M545.66,311.19l15.71,29.28s30.51-20.68,34.58-29.89c3.65-8.27-19-39.24-24.16-45.22s-9.92-6.72-8.64,3.82,7.06,29.41,7.09,29.71S545.66,311.19,545.66,311.19Z" style="fill:#dbdbdb"></path><path d="M559.15,322.07c-1.15-2.23-5.86-11-7.22-13.06,0-.06-.13,0-.1.07.9,2.32,5.44,11.26,6.59,13.48,2.32,4.43,4.6,8.93,7.26,13.17a.08.08,0,1,0,.14-.07C563.87,331,561.47,326.54,559.15,322.07Z" style="fill:#263238"></path><path d="M567.29,287.29c-1-4-2-8-3-11.94,0-.08-.15-.05-.14,0q.54,3.4,1.28,6.76c-.45-1.14-.88-2.29-1.28-3.45,0-.09-.15,0-.13.05a24,24,0,0,0,1.65,4.47c.3,1.36.62,2.71,1,4.06.5,2,2.93,10.65,3.27,11.61-3.3,1.41-6.19,3.06-9.4,4.66-1.57.78-8.86,4.09-10.41,4.9a42.9,42.9,0,0,0-4.77,2.49c-.09.06.57,1.11.69,1.31s.21.06.17,0-.41-.85-.44-.93c.79-.27,3.9-1.87,4.71-2.26l4.71-2.35c3.19-1.59,15.52-7.4,15.51-7.45C570.53,298.29,567.83,289.3,567.29,287.29Z" style="fill:#263238"></path><path d="M593.84,313.85a23.61,23.61,0,0,1-2.62,3.27c-.48.5-1,1-1.5,1.45a14,14,0,0,1-1.67,1.29c.92-1.07,1.86-2.08,2.81-3.09S592.78,314.77,593.84,313.85Z" style="fill:#263238"></path><path d="M564.11,261.76c-.19,1-4.49,7.37-8.87,7.35-1.43,0-1.72-7.8-1.72-7.8l-.16-.57-2.14-8,9.21-6.47,1.33-.86s.44,2.22,1,5c0,.13,0,.26.07.4s.07.3.09.45c.09.41.17.83.24,1.25s.12.64.17,1,.1.67.16,1A54.26,54.26,0,0,1,564.11,261.76Z" style="fill:#dd6a57"></path><path d="M562.73,250.42a16.57,16.57,0,0,1-9.37,10.32l-2.14-8,9.21-6.47,1.33-.86S562.2,247.65,562.73,250.42Z" style="fill:#263238"></path><path d="M553.51,261.34l2.23,6.53,8.38-7.66,2.12,2.71s-8.47,12.44-8.49,11.86l-2.34-5.66-4,3.63.83-9.61Z" style="fill:#fff"></path><path d="M551.54,268c.19-1.58.34-3.18.6-4.75,0-.06.1-.08.11,0,.23,1.55-.53,7.6-.6,9h0c.17-.16,3.71-3.19,3.74-3.14.52.91,2.24,5,2.35,5.4,1.34-2,7-9.74,8.56-11.6,0-.05.13,0,.09.06-1.2,2.1-8.52,12.36-8.61,12.33a59.8,59.8,0,0,1-2.44-6,41.62,41.62,0,0,1-4.21,3.87A50.5,50.5,0,0,1,551.54,268Z" style="fill:#263238"></path><path d="M563.81,245.22c5.69,1.52,10.05,4,11.91,8.92,4,10.49-10.18,18.87-14.23,31.38-4.89,15.11-13.56,21.49-19.61,15.76-6.78-6.42-3.8-19.12,13.48-30.37,10.81-7,13-12.87,11.81-16.28-.91-2.5-4-5.23-4-5.23Z" style="fill:#263238"></path><path d="M561.22,266.89c-1.63,1.24-3.4,2.28-5.12,3.39s-3.46,2.17-5.14,3.31a60.11,60.11,0,0,0-4.9,3.62,30.24,30.24,0,0,0-4.29,4.25,15.73,15.73,0,0,0-2.92,5.2,17.53,17.53,0,0,0-.66,6,13.44,13.44,0,0,0,1.72,5.84,12.32,12.32,0,0,0,1.85,2.48,10.19,10.19,0,0,0,1.15,1,5.49,5.49,0,0,0,1.32.82,7.73,7.73,0,0,1-2.64-1.67,12.67,12.67,0,0,1-2.08-2.42,13.27,13.27,0,0,1-1.39-2.89,13.94,13.94,0,0,1-.67-3.14,17,17,0,0,1,0-3.19l.09-.8.12-.78a11.88,11.88,0,0,1,.35-1.57,16.5,16.5,0,0,1,3-5.53,38.4,38.4,0,0,1,9.52-7.88c1.74-1.1,3.52-2.1,5.31-3.09S559.47,267.94,561.22,266.89Z" style="fill:#263238"></path><path d="M565.7,247.28a17.38,17.38,0,0,1,4.3.74,10,10,0,0,1,6.18,5.72,11.65,11.65,0,0,1,.63,2.06,10.71,10.71,0,0,1,.28,2.1,11.88,11.88,0,0,1-.74,4.09,19.94,19.94,0,0,1-1.92,3.73c-1.52,2.38-3.34,4.58-5.07,6.87a54.49,54.49,0,0,0-4.78,7.23,53.65,53.65,0,0,0-3.26,8.09,64.2,64.2,0,0,1-3,8.06,16.67,16.67,0,0,1-2.25,3.59l-.71.79c-.26.25-.53.47-.79.71l-.4.36-.44.3-.89.6a13.81,13.81,0,0,0,6-6.07,62.78,62.78,0,0,0,3.35-8,62.61,62.61,0,0,1,3.39-7.87,56.05,56.05,0,0,1,4.74-7.05c1.71-2.29,3.54-4.51,5.07-7a20.81,20.81,0,0,0,1.95-4,12,12,0,0,0,.67-4.47,11.48,11.48,0,0,0-.38-2.26,13.92,13.92,0,0,0-.75-2.17,10.94,10.94,0,0,0-2.75-3.68,10.72,10.72,0,0,0-4-2.06A15.54,15.54,0,0,0,565.7,247.28Z" style="fill:#263238"></path><path d="M563.6,243.37a3,3,0,0,1,2.66,1.17c.24.65-1.47,5.77-2.7,6.3s-2.54-1.57-2.54-1.57Z" style="fill:#EDC300"></path><path d="M541,237.57c-4.29,13.85,3.53,18,6.51,18.91,2.72.84,12.06,3.34,17.76-10s.61-19.71-5.49-22S545.27,223.72,541,237.57Z" style="fill:#dd6a57"></path><path d="M543.68,235.79c.34.05.66.05,1,.07a1.59,1.59,0,0,0,1-.13.5.5,0,0,0,.17-.6,1.29,1.29,0,0,0-1.13-.64,1.84,1.84,0,0,0-1.31.32A.55.55,0,0,0,543.68,235.79Z" style="fill:#263238"></path><path d="M553.25,238.49a9.42,9.42,0,0,1-.89-.47,1.63,1.63,0,0,1-.81-.65.53.53,0,0,1,.17-.61,1.32,1.32,0,0,1,1.3.06,1.87,1.87,0,0,1,1,1A.55.55,0,0,1,553.25,238.49Z" style="fill:#263238"></path><path d="M550.06,241.28s.06.07.05.1c-.33.94-.54,2.06.22,2.64a0,0,0,0,1,0,0C549.31,243.6,549.61,242.11,550.06,241.28Z" style="fill:#263238"></path><path d="M551.21,240.56c1.55.35.72,3.43-.71,3.1S549.91,240.26,551.21,240.56Z" style="fill:#263238"></path><path d="M551.77,240.88c.22.25.4.62.72.74s.73-.1,1.06-.35c0,0,.05,0,0,0-.14.59-.53,1.14-1.19,1.06s-.87-.71-.86-1.35C551.54,240.92,551.68,240.78,551.77,240.88Z" style="fill:#263238"></path><path d="M544.82,239.65s-.09,0-.1.07c-.22,1-.63,2-1.58,2.12,0,0,0,0,0,0C544.23,242,544.76,240.6,544.82,239.65Z" style="fill:#263238"></path><path d="M544.22,238.43c-1.5-.52-2.43,2.54-1,3S545.48,238.87,544.22,238.43Z" style="fill:#263238"></path><path d="M543.52,238.44c-.28.09-.61.31-.91.24s-.48-.48-.6-.86c0,0,0,0-.06,0-.19.57-.18,1.24.34,1.52s1-.13,1.33-.67C543.67,238.59,543.64,238.4,543.52,238.44Z" style="fill:#263238"></path><path d="M548.07,249.13c-.28.18-.58.44-.94.39a2.47,2.47,0,0,1-1-.47s-.07,0,0,0a1.3,1.3,0,0,0,1.1.79,1,1,0,0,0,.95-.68S548.11,249.11,548.07,249.13Z" style="fill:#263238"></path><path d="M545.06,244.58a20.59,20.59,0,0,0-.78,2c0,.07.13.14.36.22h0a3.34,3.34,0,0,0,3.43-.32.07.07,0,0,0-.08-.12,5,5,0,0,1-3.14,0c0-.2,1.1-2.3,1-2.34a6.05,6.05,0,0,0-1.62-.08c1.16-2.88,2.77-5.55,3.88-8.43,0-.1-.11-.18-.16-.09a50.22,50.22,0,0,0-4.57,8.9C543.24,244.73,544.76,244.62,545.06,244.58Z" style="fill:#263238"></path><path d="M542,234.55a57.72,57.72,0,0,0-1.44,5.87,25.07,25.07,0,0,0-.51,6,11.38,11.38,0,0,0,6.15,9.59,10.23,10.23,0,0,1-4.7-3.78,9.86,9.86,0,0,1-1.36-2.76,11.13,11.13,0,0,1-.58-3,23.25,23.25,0,0,1,.62-6.06A37.53,37.53,0,0,1,542,234.55Z" style="fill:#263238"></path><path d="M564.4,245.9c-2.69,0-2.59-6.17-2.59-6.17S550.75,236.37,551,227a15.68,15.68,0,0,1-9,7.51s1.69-10,9.94-11c0,0,10.39-2.34,15,6.25S566.21,245.91,564.4,245.9Z" style="fill:#263238"></path><path d="M551,226.35a10.24,10.24,0,0,0,0,4.27,10.62,10.62,0,0,0,1.66,4,9,9,0,0,0,.67.86l.34.42.39.38c.27.25.52.5.8.74l.88.63c.15.1.29.21.44.3l.47.26,1,.51c.66.28,1.33.52,2,.75-.62-.37-1.25-.66-1.85-1l-.88-.58-.44-.28-.4-.33c-.27-.23-.53-.45-.8-.66s-.49-.49-.73-.74l-.37-.36-.32-.41a9.79,9.79,0,0,1-.62-.82,12.77,12.77,0,0,1-2.08-5.79A11.43,11.43,0,0,1,551,226.35Z" style="fill:#263238"></path><path d="M563.28,251a2.74,2.74,0,0,1-.69,0,2.28,2.28,0,0,1-.68-.13,2,2,0,0,1-.76-.44,2.38,2.38,0,0,1-.44-.53,2.93,2.93,0,0,1-.37-.91l1.61-3.61s4.06-3.75,5.82-2.22S565.83,250.62,563.28,251Z" style="fill:#dd6a57"></path><path d="M566.67,244.84s0,.06,0,.06a6.27,6.27,0,0,0-4,3.11,1.36,1.36,0,0,1,2.06.07s0,.1-.06.08a1.53,1.53,0,0,0-1.74.16,7.23,7.23,0,0,0-1.06,1.15c-.11.13-.36,0-.27-.17l0,0C562.08,247.15,564.36,244.56,566.67,244.84Z" style="fill:#263238"></path><path d="M563.21,250.35a.67.67,0,0,1-1.23-.54.67.67,0,1,1,1.23.54Z" style="fill:#fff"></path><path d="M564.78,249.65a.48.48,0,0,1-.63.24.46.46,0,0,1-.24-.62.47.47,0,0,1,.62-.25A.49.49,0,0,1,564.78,249.65Z" style="fill:#fff"></path></g><g id="freepik--speech-bubbles--inject-69"><path d="M572.84,214.77a11.92,11.92,0,0,1-2-6.6c0-8.37,9.18-15.15,20.5-15.15s20.5,6.78,20.5,15.15-9.18,15.14-20.5,15.14a24.59,24.59,0,0,1-14.14-4.19l-7.07,1.8Z" style="fill:#fffefd"></path><path d="M572.84,214.77a12,12,0,0,1-2.16-6.24,12.16,12.16,0,0,1,1.6-6.47,16.33,16.33,0,0,1,4.52-4.95,21.75,21.75,0,0,1,6-3.08,28,28,0,0,1,6.59-1.35,28.61,28.61,0,0,1,6.73.33,22.37,22.37,0,0,1,12,5.85,14.24,14.24,0,0,1,3.61,5.78,11.69,11.69,0,0,1,.06,6.83,14.08,14.08,0,0,1-3.52,5.83,20,20,0,0,1-5.53,3.91,26.27,26.27,0,0,1-13.15,2.4,24.4,24.4,0,0,1-12.57-4.3l.18,0L570.12,221l-.24.06.1-.22Zm0,0L570.2,221l-.14-.17,7-1.9.1,0,.09.06a24,24,0,0,0,12.36,4,27.93,27.93,0,0,0,6.52-.46,23.89,23.89,0,0,0,6.19-2,18.93,18.93,0,0,0,5.26-3.76,13.29,13.29,0,0,0,3.26-5.46,10.8,10.8,0,0,0-.09-6.27,13.37,13.37,0,0,0-3.34-5.4,21.34,21.34,0,0,0-11.5-5.65,27.33,27.33,0,0,0-13,.82,18.55,18.55,0,0,0-10.34,7.58,11.73,11.73,0,0,0-1.74,6.24A12.26,12.26,0,0,0,572.84,214.77Z" style="fill:#263238"></path><path d="M598.67,208.17A2.13,2.13,0,1,0,600.8,206,2.13,2.13,0,0,0,598.67,208.17Z" style="fill:#263238"></path><path d="M589.17,208.17A2.13,2.13,0,1,0,591.3,206,2.12,2.12,0,0,0,589.17,208.17Z" style="fill:#263238"></path><path d="M579.67,208.17A2.13,2.13,0,1,0,581.8,206,2.12,2.12,0,0,0,579.67,208.17Z" style="fill:#263238"></path></g></svg>